NotoSerif-Light.ufo
<glyph name="quotedbl" format="2">
  <advance width="282"/>
  <unicode hex="0022"/>
  <outline>
    <contour>
      <point x="205" y="499" type="line"/>
      <point x="227" y="499" type="line"/>
      <point x="235" y="714" type="line"/>
      <point x="195" y="714" type="line"/>
    </contour>
    <contour>
      <point x="57" y="499" type="line"/>
      <point x="79" y="499" type="line"/>
      <point x="87" y="714" type="line"/>
      <point x="47" y="714" type="line"/>
    </contour>
  </outline>
</glyph>
<glyph name="uni02A1" format="2">
  <advance width="445"/>
  <unicode hex="02A1"/>
  <anchor x="223" y="0" name="bottom"/>
  <anchor x="223" y="760" name="top"/>
  <anchor x="437" y="760" name="topright"/>
  <outline>
    <contour>
      <point x="72" y="197" type="line"/>
      <point x="306" y="197" type="line"/>
      <point x="306" y="222" type="line"/>
      <point x="72" y="222" type="line"/>
    </contour>
    <component base="uni0294"/>
  </outline>
</glyph>
<glyph name="uni052A" format="2">
  <advance width="1338"/>
  <unicode hex="052A"/>
  <anchor x="669" y="-210" name="bottom"/>
  <anchor x="669" y="714" name="top"/>
  <outline>
    <contour>
      <point x="504" y="346" type="line"/>
      <point x="846" y="346" type="line"/>
      <point x="846" y="371" type="line"/>
      <point x="504" y="371" type="line"/>
    </contour>
    <component base="afii10021"/>
    <component base="afii10028" xOffset="680"/>
  </outline>
</glyph>
<glyph name="uni052D" format="2">
  <advance width="598"/>
  <unicode hex="052D"/>
  <anchor x="299" y="-210" name="bottom"/>
  <anchor x="299" y="536" name="top"/>
  <outline>
    <contour>
      <point x="13" y="-210" type="line"/>
      <point x="33" y="-210" type="line"/>
      <point x="40" y="-29" type="line" smooth="yes"/>
      <point x="42" y="-2"/>
      <point x="50" y="0"/>
      <point x="80" y="0" type="curve" smooth="yes"/>
      <point x="495" y="0" type="line" smooth="yes"/>
      <point x="519" y="0"/>
      <point x="525" y="-4"/>
      <point x="526" y="-31" type="curve" smooth="yes"/>
      <point x="532" y="-210" type="line"/>
      <point x="552" y="-210" type="line"/>
      <point x="552" y="25" type="line"/>
      <point x="506" y="25" type="line" smooth="yes"/>
      <point x="460" y="25"/>
      <point x="460" y="31"/>
      <point x="460" y="94" type="curve" smooth="yes"/>
      <point x="460" y="442" type="line" smooth="yes"/>
      <point x="460" y="511"/>
      <point x="463" y="516"/>
      <point x="523" y="516" type="curve" smooth="yes"/>
      <point x="569" y="516" type="line"/>
      <point x="569" y="536" type="line"/>
      <point x="417" y="536" type="line"/>
      <point x="211" y="220" type="line"/>
      <point x="165" y="231"/>
      <point x="144" y="263"/>
      <point x="144" y="316" type="curve" smooth="yes"/>
      <point x="144" y="442" type="line" smooth="yes"/>
      <point x="144" y="511"/>
      <point x="148" y="516"/>
      <point x="220" y="516" type="curve" smooth="yes"/>
      <point x="243" y="516" type="line"/>
      <point x="243" y="536" type="line"/>
      <point x="9" y="536" type="line"/>
      <point x="9" y="516" type="line"/>
      <point x="39" y="516" type="line" smooth="yes"/>
      <point x="111" y="516"/>
      <point x="116" y="511"/>
      <point x="116" y="442" type="curve" smooth="yes"/>
      <point x="116" y="312" type="line" smooth="yes"/>
      <point x="116" y="252"/>
      <point x="144" y="212"/>
      <point x="196" y="197" type="curve"/>
      <point x="85" y="25" type="line"/>
      <point x="13" y="25" type="line"/>
    </contour>
    <contour>
      <point x="116" y="25" type="line"/>
      <point x="224" y="191" type="line"/>
      <point x="232" y="190"/>
      <point x="240" y="190"/>
      <point x="249" y="190" type="curve" smooth="yes"/>
      <point x="317" y="190"/>
      <point x="375" y="211"/>
      <point x="432" y="247" type="curve"/>
      <point x="432" y="25" type="line"/>
    </contour>
    <contour>
      <point x="240" y="215" type="curve"/>
      <point x="432" y="511" type="line"/>
      <point x="432" y="272" type="line"/>
      <point x="353" y="227"/>
      <point x="310" y="215"/>
    </contour>
  </outline>
</glyph>
<glyph name="uni1ABF" format="2">
  <unicode hex="1ABF"/>
  <anchor x="0" y="0" name="_bottom"/>
  <outline>
    <contour>
      <point x="-79" y="-278" type="line"/>
      <point x="0" y="-74" type="line"/>
      <point x="79" y="-278" type="line"/>
      <point x="95" y="-278" type="line"/>
      <point x="161" y="-91" type="line" smooth="yes"/>
      <point x="167" y="-74"/>
      <point x="169" y="-72"/>
      <point x="187" y="-72" type="curve" smooth="yes"/>
      <point x="197" y="-72" type="line"/>
      <point x="197" y="-64" type="line"/>
      <point x="118" y="-64" type="line"/>
      <point x="118" y="-72" type="line"/>
      <point x="135" y="-72" type="line" smooth="yes"/>
      <point x="150" y="-72"/>
      <point x="152" y="-74"/>
      <point x="152" y="-80" type="curve" smooth="yes"/>
      <point x="152" y="-86"/>
      <point x="148" y="-96"/>
      <point x="144" y="-107" type="curve" smooth="yes"/>
      <point x="113" y="-196" type="line" smooth="yes"/>
      <point x="101" y="-228"/>
      <point x="91" y="-256"/>
      <point x="88" y="-269" type="curve"/>
      <point x="86" y="-269" type="line"/>
      <point x="82" y="-254"/>
      <point x="64" y="-208"/>
      <point x="56" y="-189" type="curve" smooth="yes"/>
      <point x="8" y="-64" type="line"/>
      <point x="-8" y="-64" type="line"/>
      <point x="-59" y="-196" type="line" smooth="yes"/>
      <point x="-67" y="-215"/>
      <point x="-82" y="-254"/>
      <point x="-85" y="-267" type="curve"/>
      <point x="-86" y="-267" type="line"/>
      <point x="-89" y="-254"/>
      <point x="-101" y="-217"/>
      <point x="-107" y="-198" type="curve" smooth="yes"/>
      <point x="-135" y="-108" type="line" smooth="yes"/>
      <point x="-138" y="-100"/>
      <point x="-143" y="-84"/>
      <point x="-143" y="-80" type="curve" smooth="yes"/>
      <point x="-143" y="-74"/>
      <point x="-141" y="-72"/>
      <point x="-126" y="-72" type="curve" smooth="yes"/>
      <point x="-113" y="-72" type="line"/>
      <point x="-113" y="-64" type="line"/>
      <point x="-190" y="-64" type="line"/>
      <point x="-190" y="-72" type="line"/>
      <point x="-180" y="-72" type="line" smooth="yes"/>
      <point x="-161" y="-72"/>
      <point x="-159" y="-74"/>
      <point x="-153" y="-93" type="curve" smooth="yes"/>
      <point x="-94" y="-278" type="line"/>
    </contour>
  </outline>
</glyph>
<glyph name="uni1AC0" format="2">
  <unicode hex="1AC0"/>
  <anchor x="0" y="0" name="_bottom"/>
  <outline>
    <contour>
      <point x="79" y="-64" type="line"/>
      <point x="0" y="-268" type="line"/>
      <point x="-79" y="-64" type="line"/>
      <point x="-95" y="-64" type="line"/>
      <point x="-161" y="-251" type="line" smooth="yes"/>
      <point x="-167" y="-268"/>
      <point x="-169" y="-270"/>
      <point x="-187" y="-270" type="curve" smooth="yes"/>
      <point x="-197" y="-270" type="line"/>
      <point x="-197" y="-278" type="line"/>
      <point x="-118" y="-278" type="line"/>
      <point x="-118" y="-270" type="line"/>
      <point x="-135" y="-270" type="line" smooth="yes"/>
      <point x="-150" y="-270"/>
      <point x="-152" y="-268"/>
      <point x="-152" y="-262" type="curve" smooth="yes"/>
      <point x="-152" y="-256"/>
      <point x="-148" y="-246"/>
      <point x="-144" y="-235" type="curve" smooth="yes"/>
      <point x="-113" y="-146" type="line" smooth="yes"/>
      <point x="-101" y="-114"/>
      <point x="-91" y="-86"/>
      <point x="-88" y="-73" type="curve"/>
      <point x="-86" y="-73" type="line"/>
      <point x="-82" y="-88"/>
      <point x="-64" y="-134"/>
      <point x="-56" y="-153" type="curve" smooth="yes"/>
      <point x="-8" y="-278" type="line"/>
      <point x="8" y="-278" type="line"/>
      <point x="59" y="-146" type="line" smooth="yes"/>
      <point x="67" y="-127"/>
      <point x="82" y="-88"/>
      <point x="85" y="-75" type="curve"/>
      <point x="86" y="-75" type="line"/>
      <point x="89" y="-88"/>
      <point x="101" y="-125"/>
      <point x="107" y="-144" type="curve" smooth="yes"/>
      <point x="135" y="-234" type="line" smooth="yes"/>
      <point x="138" y="-242"/>
      <point x="143" y="-258"/>
      <point x="143" y="-262" type="curve" smooth="yes"/>
      <point x="143" y="-268"/>
      <point x="141" y="-270"/>
      <point x="126" y="-270" type="curve" smooth="yes"/>
      <point x="113" y="-270" type="line"/>
      <point x="113" y="-278" type="line"/>
      <point x="190" y="-278" type="line"/>
      <point x="190" y="-270" type="line"/>
      <point x="180" y="-270" type="line" smooth="yes"/>
      <point x="161" y="-270"/>
      <point x="159" y="-268"/>
      <point x="153" y="-249" type="curve" smooth="yes"/>
      <point x="94" y="-64" type="line"/>
    </contour>
  </outline>
</glyph>
<glyph name="uni1D7A" format="2">
  <advance width="904"/>
  <unicode hex="1D7A"/>
  <anchor x="163" y="0" name="bottom_1"/>
  <anchor x="596" y="0" name="bottom_2"/>
  <anchor x="112" y="268" name="center_1"/>
  <anchor x="596" y="268" name="center_2"/>
  <anchor x="114" y="657" name="top_1"/>
  <anchor x="427" y="760" name="top_2"/>
  <anchor x="156" y="900" name="topright_1"/>
  <anchor x="783" y="760" name="topright_2"/>
  <outline>
    <contour>
      <point x="6" y="-110" type="line"/>
      <point x="37" y="-110" type="line"/>
      <point x="686" y="760" type="line"/>
      <point x="653" y="760" type="line"/>
    </contour>
    <component base="t"/>
    <component base="h" xOffset="298"/>
  </outline>
</glyph>
<glyph name="uni1D7C" format="2">
  <advance width="270"/>
  <unicode hex="1D7C"/>
  <anchor x="135" y="0" name="bottom"/>
  <anchor x="135" y="536" name="top"/>
  <outline>
    <contour>
      <point x="10" y="287" type="line"/>
      <point x="245" y="287" type="line"/>
      <point x="245" y="312" type="line"/>
      <point x="10" y="312" type="line"/>
    </contour>
    <component base="iotaLatin"/>
  </outline>
</glyph>
<glyph name="uni1D7D" format="2">
  <advance width="574"/>
  <unicode hex="1D7D"/>
  <anchor x="133" y="-240" name="bottom"/>
  <anchor x="296" y="536" name="top"/>
  <anchor x="544" y="536" name="topright"/>
  <outline>
    <contour>
      <point x="24" y="259" type="line"/>
      <point x="579" y="259" type="line"/>
      <point x="579" y="284" type="line"/>
      <point x="24" y="284" type="line"/>
    </contour>
    <component base="p"/>
  </outline>
</glyph>
<glyph name="uni1D7F" format="2">
  <advance width="531"/>
  <unicode hex="1D7F"/>
  <anchor x="265" y="0" name="bottom"/>
  <anchor x="265" y="536" name="top"/>
  <outline>
    <contour>
      <point x="29" y="264" type="line"/>
      <point x="502" y="264" type="line"/>
      <point x="502" y="289" type="line"/>
      <point x="29" y="289" type="line"/>
    </contour>
    <component base="uni028A"/>
  </outline>
</glyph>
<glyph name="second" format="2">
  <advance width="257"/>
  <unicode hex="2033"/>
  <outline>
    <contour>
      <point x="145" y="479" type="line"/>
      <point x="158" y="479" type="line"/>
      <point x="237" y="714" type="line"/>
      <point x="196" y="714" type="line"/>
    </contour>
    <contour>
      <point x="20" y="479" type="line"/>
      <point x="33" y="479" type="line"/>
      <point x="112" y="714" type="line"/>
      <point x="71" y="714" type="line"/>
    </contour>
  </outline>
</glyph>
<glyph name="uni2034" format="2">
  <advance width="382"/>
  <unicode hex="2034"/>
  <outline>
    <contour>
      <point x="270" y="479" type="line"/>
      <point x="283" y="479" type="line"/>
      <point x="362" y="714" type="line"/>
      <point x="321" y="714" type="line"/>
    </contour>
    <contour>
      <point x="20" y="479" type="line"/>
      <point x="33" y="479" type="line"/>
      <point x="112" y="714" type="line"/>
      <point x="71" y="714" type="line"/>
    </contour>
    <contour>
      <point x="145" y="479" type="line"/>
      <point x="158" y="479" type="line"/>
      <point x="237" y="714" type="line"/>
      <point x="196" y="714" type="line"/>
    </contour>
  </outline>
</glyph>
<glyph name="doubleprimeReversed" format="2">
  <advance width="257"/>
  <unicode hex="2036"/>
  <outline>
    <contour>
      <point x="224" y="479" type="line"/>
      <point x="237" y="479" type="line"/>
      <point x="186" y="714" type="line"/>
      <point x="145" y="714" type="line"/>
    </contour>
    <contour>
      <point x="99" y="479" type="line"/>
      <point x="112" y="479" type="line"/>
      <point x="61" y="714" type="line"/>
      <point x="20" y="714" type="line"/>
    </contour>
  </outline>
</glyph>
<glyph name="quadrupleprime" format="2">
  <advance width="518"/>
  <unicode hex="2057"/>
  <outline>
    <contour>
      <point x="406" y="479" type="line"/>
      <point x="419" y="479" type="line"/>
      <point x="498" y="714" type="line"/>
      <point x="457" y="714" type="line"/>
    </contour>
    <contour>
      <point x="20" y="479" type="line"/>
      <point x="33" y="479" type="line"/>
      <point x="112" y="714" type="line"/>
      <point x="71" y="714" type="line"/>
    </contour>
    <contour>
      <point x="145" y="479" type="line"/>
      <point x="158" y="479" type="line"/>
      <point x="237" y="714" type="line"/>
      <point x="196" y="714" type="line"/>
    </contour>
    <contour>
      <point x="281" y="479" type="line"/>
      <point x="294" y="479" type="line"/>
      <point x="373" y="714" type="line"/>
      <point x="332" y="714" type="line"/>
    </contour>
  </outline>
</glyph>
<glyph name="Euro" format="2">
  <advance width="559"/>
  <unicode hex="20AC"/>
  <outline>
    <contour>
      <point x="337" y="-10" type="curve" smooth="yes"/>
      <point x="415" y="-10"/>
      <point x="470" y="29"/>
      <point x="470" y="51" type="curve" smooth="yes"/>
      <point x="470" y="58"/>
      <point x="466" y="66"/>
      <point x="456" y="69" type="curve"/>
      <point x="438" y="50"/>
      <point x="406" y="15"/>
      <point x="337" y="15" type="curve" smooth="yes"/>
      <point x="211" y="15"/>
      <point x="155" y="109"/>
      <point x="146" y="273" type="curve"/>
      <point x="326" y="273" type="line"/>
      <point x="326" y="298" type="line"/>
      <point x="142" y="298" type="line"/>
      <point x="142" y="384" type="line"/>
      <point x="366" y="384" type="line"/>
      <point x="366" y="411" type="line"/>
      <point x="144" y="411" type="line"/>
      <point x="154" y="652"/>
      <point x="246" y="699"/>
      <point x="331" y="699" type="curve" smooth="yes"/>
      <point x="419" y="699"/>
      <point x="442" y="655"/>
      <point x="442" y="592" type="curve"/>
      <point x="458" y="592"/>
      <point x="471" y="608"/>
      <point x="471" y="629" type="curve" smooth="yes"/>
      <point x="471" y="672"/>
      <point x="421" y="724"/>
      <point x="334" y="724" type="curve" smooth="yes"/>
      <point x="222" y="724"/>
      <point x="122" y="652"/>
      <point x="117" y="411" type="curve"/>
      <point x="18" y="411" type="line"/>
      <point x="18" y="384" type="line"/>
      <point x="115" y="384" type="line"/>
      <point x="115" y="298" type="line"/>
      <point x="18" y="298" type="line"/>
      <point x="18" y="273" type="line"/>
      <point x="117" y="273" type="line"/>
      <point x="133" y="75"/>
      <point x="198" y="-10"/>
    </contour>
  </outline>
</glyph>
<glyph name="uni20AD" format="2">
  <advance width="658"/>
  <unicode hex="20AD"/>
  <anchor x="349" y="0" name="bottom"/>
  <anchor x="349" y="714" name="top"/>
  <anchor x="638" y="714" name="topright"/>
  <outline>
    <contour>
      <point x="66" y="362" type="line"/>
      <point x="567" y="362" type="line"/>
      <point x="567" y="388" type="line"/>
      <point x="66" y="388" type="line"/>
    </contour>
    <component base="K"/>
  </outline>
</glyph>
<glyph name="response" format="2">
  <advance width="592"/>
  <unicode hex="211F"/>
  <anchor x="326" y="0" name="bottom"/>
  <anchor x="296" y="714" name="top"/>
  <anchor x="572" y="714" name="topright"/>
  <outline>
    <contour>
      <point x="99" y="-121" type="line"/>
      <point x="125" y="-121" type="line"/>
      <point x="433" y="787" type="line"/>
      <point x="233" y="856" type="line"/>
      <point x="224" y="829" type="line"/>
      <point x="398" y="771" type="line"/>
    </contour>
    <component base="R"/>
  </outline>
</glyph>
<glyph name="uni2C66" format="2">
  <advance width="286"/>
  <unicode hex="2C66"/>
  <anchor x="143" y="-207" name="bottom"/>
  <anchor x="143" y="714" name="top"/>
  <anchor x="112" y="268" name="center"/>
  <anchor x="156" y="900" name="topright"/>
  <outline>
    <contour>
      <point x="73" y="-207" type="line"/>
      <point x="98" y="-207" type="line"/>
      <point x="304" y="714" type="line"/>
      <point x="279" y="714" type="line"/>
    </contour>
    <component base="t"/>
  </outline>
</glyph>
<glyph name="olowringinside" format="2">
  <advance width="531"/>
  <unicode hex="2C7A"/>
  <anchor x="266" y="0" name="bottom"/>
  <anchor x="266" y="536" name="top"/>
  <outline>
    <contour>
      <point x="265" y="-10" type="curve" smooth="yes"/>
      <point x="397" y="-10"/>
      <point x="466" y="79"/>
      <point x="466" y="267" type="curve" smooth="yes"/>
      <point x="466" y="459"/>
      <point x="396" y="542"/>
      <point x="270" y="542" type="curve" smooth="yes"/>
      <point x="135" y="542"/>
      <point x="65" y="454"/>
      <point x="65" y="267" type="curve" smooth="yes"/>
      <point x="65" y="79"/>
      <point x="141" y="-10"/>
    </contour>
    <contour>
      <point x="265" y="18" type="curve" smooth="yes"/>
      <point x="222" y="18"/>
      <point x="175" y="27"/>
      <point x="175" y="86" type="curve" smooth="yes"/>
      <point x="175" y="143"/>
      <point x="221" y="162"/>
      <point x="264" y="162" type="curve" smooth="yes"/>
      <point x="309" y="162"/>
      <point x="355" y="143"/>
      <point x="355" y="86" type="curve" smooth="yes"/>
      <point x="355" y="27"/>
      <point x="310" y="18"/>
    </contour>
    <contour>
      <point x="157" y="54" type="curve"/>
      <point x="114" y="96"/>
      <point x="94" y="170"/>
      <point x="93" y="267" type="curve" smooth="yes"/>
      <point x="92" y="434"/>
      <point x="144" y="517"/>
      <point x="270" y="517" type="curve" smooth="yes"/>
      <point x="386" y="517"/>
      <point x="438" y="438"/>
      <point x="438" y="267" type="curve" smooth="yes"/>
      <point x="438" y="162"/>
      <point x="418" y="97"/>
      <point x="374" y="54" type="curve"/>
      <point x="398" y="123"/>
      <point x="361" y="187"/>
      <point x="264" y="187" type="curve" smooth="yes"/>
      <point x="177" y="187"/>
      <point x="131" y="127"/>
    </contour>
  </outline>
</glyph>
<glyph name="uni2E4A" format="2">
  <advance width="288"/>
  <unicode hex="2E4A"/>
  <outline>
    <contour>
      <point x="130" y="230" type="curve" smooth="yes"/>
      <point x="146" y="230"/>
      <point x="159" y="239"/>
      <point x="159" y="270" type="curve" smooth="yes"/>
      <point x="159" y="300"/>
      <point x="146" y="308"/>
      <point x="130" y="308" type="curve" smooth="yes"/>
      <point x="115" y="308"/>
      <point x="101" y="300"/>
      <point x="101" y="270" type="curve" smooth="yes"/>
      <point x="101" y="239"/>
      <point x="115" y="230"/>
    </contour>
    <component base="slash"/>
  </outline>
</glyph>
<glyph name="uni2E4C" format="2">
  <advance width="341"/>
  <unicode hex="2E4C"/>
  <outline>
    <contour>
      <point x="132" y="69" type="curve" smooth="yes"/>
      <point x="116" y="69"/>
      <point x="103" y="60"/>
      <point x="103" y="29" type="curve" smooth="yes"/>
      <point x="103" y="-1"/>
      <point x="116" y="-9"/>
      <point x="132" y="-9" type="curve" smooth="yes"/>
      <point x="147" y="-9"/>
      <point x="161" y="-1"/>
      <point x="161" y="29" type="curve" smooth="yes"/>
      <point x="161" y="60"/>
      <point x="147" y="69"/>
    </contour>
    <component base="uni2E45" xScale="0" xyScale="-1" yxScale="1" yScale="0" xOffset="-162" yOffset="591"/>
  </outline>
</glyph>
<glyph name="uniA651" format="2">
  <advance width="824"/>
  <unicode hex="A651"/>
  <anchor x="301" y="0" name="bottom"/>
  <anchor x="301" y="536" name="top"/>
  <outline>
    <contour>
      <point x="575" y="0" type="line"/>
      <point x="777" y="0" type="line"/>
      <point x="777" y="20" type="line"/>
      <point x="752" y="20" type="line" smooth="yes"/>
      <point x="691" y="20"/>
      <point x="686" y="24"/>
      <point x="686" y="94" type="curve" smooth="yes"/>
      <point x="686" y="442" type="line" smooth="yes"/>
      <point x="686" y="511"/>
      <point x="689" y="516"/>
      <point x="755" y="516" type="curve" smooth="yes"/>
      <point x="777" y="516" type="line"/>
      <point x="777" y="536" type="line"/>
      <point x="575" y="536" type="line"/>
      <point x="575" y="516" type="line"/>
      <point x="604" y="516" type="line" smooth="yes"/>
      <point x="653" y="516"/>
      <point x="658" y="511"/>
      <point x="658" y="442" type="curve" smooth="yes"/>
      <point x="658" y="94" type="line" smooth="yes"/>
      <point x="658" y="24"/>
      <point x="651" y="20"/>
      <point x="600" y="20" type="curve" smooth="yes"/>
      <point x="575" y="20" type="line"/>
    </contour>
    <component base="afii10092"/>
  </outline>
</glyph>
<glyph name="uniA680" format="2">
  <advance width="660"/>
  <unicode hex="A680"/>
  <anchor x="330" y="0" name="bottom"/>
  <anchor x="330" y="714" name="top"/>
  <outline>
    <contour>
      <point x="280" y="710" type="line"/>
      <point x="308" y="710" type="line"/>
      <point x="308" y="839" type="line"/>
      <point x="280" y="839" type="line"/>
    </contour>
    <component base="afii10021"/>
  </outline>
</glyph>
<glyph name="uniA681" format="2">
  <advance width="543"/>
  <unicode hex="A681"/>
  <anchor x="272" y="0" name="bottom"/>
  <anchor x="272" y="536" name="top"/>
  <outline>
    <contour>
      <point x="190" y="534" type="line"/>
      <point x="218" y="534" type="line"/>
      <point x="229" y="659" type="line"/>
      <point x="201" y="659" type="line"/>
    </contour>
    <component base="afii10069"/>
  </outline>
</glyph>
<glyph name="uniA749" format="2">
  <advance width="256"/>
  <unicode hex="A749"/>
  <anchor x="128" y="0" name="bottom"/>
  <anchor x="128" y="268" name="center"/>
  <anchor x="120" y="760" name="top"/>
  <anchor x="186" y="760" name="topright"/>
  <outline>
    <contour>
      <point x="17" y="612" type="line"/>
      <point x="231" y="612" type="line"/>
      <point x="231" y="637" type="line"/>
      <point x="17" y="637" type="line"/>
    </contour>
    <component base="l"/>
  </outline>
</glyph>
<glyph name="uniA74A" format="2">
  <advance width="686"/>
  <unicode hex="A74A"/>
  <anchor x="343" y="0" name="bottom"/>
  <anchor x="343" y="357" name="center"/>
  <anchor x="343" y="714" name="top"/>
  <anchor x="666" y="714" name="topright"/>
  <outline>
    <contour>
      <point x="-1" y="361" type="line"/>
      <point x="685" y="361" type="line"/>
      <point x="685" y="386" type="line"/>
      <point x="-1" y="386" type="line"/>
    </contour>
    <component base="O"/>
  </outline>
</glyph>
<glyph name="uniA750" format="2">
  <advance width="562"/>
  <unicode hex="A750"/>
  <anchor x="163" y="0" name="bottom"/>
  <anchor x="281" y="714" name="top"/>
  <anchor x="542" y="714" name="topright"/>
  <outline>
    <contour>
      <point x="50" y="150" type="line"/>
      <point x="283" y="150" type="line"/>
      <point x="283" y="175" type="line"/>
      <point x="50" y="175" type="line"/>
    </contour>
    <component base="P"/>
  </outline>
</glyph>
<glyph name="uniA793" format="2">
  <advance width="479"/>
  <unicode hex="A793"/>
  <anchor x="285" y="0" name="bottom"/>
  <anchor x="293" y="536" name="top"/>
  <anchor x="459" y="536" name="topright"/>
  <outline>
    <contour>
      <point x="25" y="262" type="line"/>
      <point x="240" y="262" type="line"/>
      <point x="240" y="287" type="line"/>
      <point x="25" y="287" type="line"/>
    </contour>
    <component base="c" xOffset="31"/>
  </outline>
</glyph>
<glyph name="uniA799" format="2">
  <advance width="321"/>
  <unicode hex="A799"/>
  <anchor x="151" y="0" name="bottom"/>
  <anchor x="261" y="772" name="top"/>
  <anchor x="381" y="772" name="topright"/>
  <outline>
    <contour>
      <point x="37" y="266" type="line"/>
      <point x="265" y="266" type="line"/>
      <point x="265" y="291" type="line"/>
      <point x="37" y="291" type="line"/>
    </contour>
    <component base="f"/>
  </outline>
</glyph>
<glyph name="uniA7A4" format="2">
  <advance width="731"/>
  <unicode hex="A7A4"/>
  <anchor x="376" y="0" name="bottom"/>
  <anchor x="366" y="714" name="top"/>
  <anchor x="711" y="714" name="topright"/>
  <outline>
    <contour>
      <point x="22" y="263" type="line"/>
      <point x="719" y="449" type="line"/>
      <point x="719" y="474" type="line"/>
      <point x="22" y="288" type="line"/>
    </contour>
    <component base="N"/>
  </outline>
</glyph>
<glyph name="uniA7A7" format="2">
  <advance width="405"/>
  <unicode hex="A7A7"/>
  <anchor x="153" y="0" name="bottom"/>
  <anchor x="223" y="536" name="top"/>
  <anchor x="385" y="536" name="topright"/>
  <outline>
    <contour>
      <point x="48" y="201" type="line"/>
      <point x="299" y="253" type="line"/>
      <point x="299" y="278" type="line"/>
      <point x="48" y="226" type="line"/>
    </contour>
    <component base="r"/>
  </outline>
</glyph>
<glyph name="uniA7A8" format="2">
  <advance width="490"/>
  <unicode hex="A7A8"/>
  <anchor x="255" y="0" name="bottom"/>
  <anchor x="265" y="714" name="top"/>
  <anchor x="470" y="714" name="topright"/>
  <outline>
    <contour>
      <point x="72" y="309" type="line"/>
      <point x="460" y="395" type="line"/>
      <point x="460" y="420" type="line"/>
      <point x="72" y="334" type="line"/>
    </contour>
    <component base="S"/>
  </outline>
</glyph>
<glyph name="uniA7A9" format="2">
  <advance width="405"/>
  <unicode hex="A7A9"/>
  <anchor x="203" y="0" name="bottom"/>
  <anchor x="203" y="536" name="top"/>
  <anchor x="345" y="536" name="topright"/>
  <outline>
    <contour>
      <point x="44" y="232" type="line"/>
      <point x="376" y="300" type="line"/>
      <point x="376" y="325" type="line"/>
      <point x="44" y="257" type="line"/>
    </contour>
    <component base="s"/>
  </outline>
</glyph>
<glyph name="uniA7B9" format="2">
  <advance width="597"/>
  <unicode hex="A7B9"/>
  <anchor x="513" y="0" name="bottom"/>
  <anchor x="285" y="536" name="top"/>
  <anchor x="517" y="536" name="topright"/>
  <outline>
    <contour>
      <point x="100" y="-11" type="line"/>
      <point x="129" y="-11" type="line"/>
      <point x="518" y="582" type="line"/>
      <point x="488" y="582" type="line"/>
    </contour>
    <component base="u"/>
  </outline>
</glyph>
<glyph name="uniA7C3" format="2">
  <advance width="802"/>
  <unicode hex="A7C3"/>
  <outline>
    <contour>
      <point x="86" y="468" type="curve" smooth="yes"/>
      <point x="259" y="0" type="line"/>
      <point x="283" y="0" type="line"/>
      <point x="458" y="405" type="line"/>
      <point x="488" y="474"/>
      <point x="527" y="519"/>
      <point x="584" y="519" type="curve" smooth="yes"/>
      <point x="642" y="519"/>
      <point x="685" y="485"/>
      <point x="685" y="424" type="curve" smooth="yes"/>
      <point x="685" y="375"/>
      <point x="647" y="320"/>
      <point x="573" y="299" type="curve"/>
      <point x="560" y="302"/>
      <point x="550" y="304"/>
      <point x="538" y="304" type="curve" smooth="yes"/>
      <point x="521" y="304"/>
      <point x="510" y="301"/>
      <point x="510" y="290" type="curve" smooth="yes"/>
      <point x="510" y="279"/>
      <point x="524" y="275"/>
      <point x="541" y="275" type="curve" smooth="yes"/>
      <point x="551" y="275"/>
      <point x="560" y="276"/>
      <point x="575" y="280" type="curve"/>
      <point x="674" y="264"/>
      <point x="710" y="211"/>
      <point x="710" y="143" type="curve" smooth="yes"/>
      <point x="710" y="65"/>
      <point x="641" y="27"/>
      <point x="507" y="27" type="curve" smooth="yes"/>
      <point x="500" y="27" type="line"/>
      <point x="429" y="139"/>
      <point x="384" y="260"/>
      <point x="384" y="386" type="curve" smooth="yes"/>
      <point x="384" y="483"/>
      <point x="400" y="586"/>
      <point x="465" y="694" type="curve"/>
      <point x="435" y="694" type="line"/>
      <point x="373" y="591"/>
      <point x="357" y="488"/>
      <point x="357" y="386" type="curve" smooth="yes"/>
      <point x="357" y="257"/>
      <point x="404" y="125"/>
      <point x="485" y="0" type="curve"/>
      <point x="502" y="0" type="line" smooth="yes"/>
      <point x="668" y="0"/>
      <point x="738" y="51"/>
      <point x="738" y="142" type="curve" smooth="yes"/>
      <point x="738" y="226"/>
      <point x="691" y="272"/>
      <point x="611" y="292" type="curve"/>
      <point x="674" y="316"/>
      <point x="714" y="362"/>
      <point x="714" y="423" type="curve" smooth="yes"/>
      <point x="714" y="495"/>
      <point x="663" y="546"/>
      <point x="585" y="546" type="curve" smooth="yes"/>
      <point x="512" y="546"/>
      <point x="467" y="493"/>
      <point x="432" y="411" type="curve"/>
      <point x="273" y="36" type="line"/>
      <point x="259" y="76"/>
      <point x="231" y="151"/>
      <point x="213" y="199" type="curve" smooth="yes"/>
      <point x="133" y="413" type="line" smooth="yes"/>
      <point x="122" y="443"/>
      <point x="110" y="478"/>
      <point x="110" y="495" type="curve" smooth="yes"/>
      <point x="110" y="509"/>
      <point x="115" y="516"/>
      <point x="156" y="516" type="curve" smooth="yes"/>
      <point x="180" y="516" type="line"/>
      <point x="180" y="536" type="line"/>
      <point x="8" y="536" type="line"/>
      <point x="8" y="516" type="line"/>
      <point x="66" y="516"/>
      <point x="69" y="515"/>
    </contour>
  </outline>
</glyph>
<glyph name="uniA7C5" format="2">
  <advance width="490"/>
  <unicode hex="A7C5"/>
  <anchor x="255" y="0" name="bottom"/>
  <anchor x="265" y="714" name="top"/>
  <anchor x="470" y="714" name="topright"/>
  <outline>
    <contour>
      <point x="217" y="-241" type="curve" smooth="yes"/>
      <point x="274" y="-241"/>
      <point x="295" y="-217"/>
      <point x="295" y="-190" type="curve" smooth="yes"/>
      <point x="295" y="-171"/>
      <point x="282" y="-163"/>
      <point x="264" y="-163" type="curve" smooth="yes"/>
      <point x="234" y="-163"/>
      <point x="231" y="-211"/>
      <point x="194" y="-211" type="curve" smooth="yes"/>
      <point x="142" y="-211"/>
      <point x="102" y="-179"/>
      <point x="102" y="-101" type="curve" smooth="yes"/>
      <point x="102" y="106" type="line"/>
      <point x="75" y="126" type="line"/>
      <point x="75" y="-108" type="line" smooth="yes"/>
      <point x="75" y="-198"/>
      <point x="126" y="-241"/>
    </contour>
    <component base="S"/>
  </outline>
</glyph>
<glyph name="uniA7C7" format="2">
  <advance width="677"/>
  <unicode hex="A7C7"/>
  <anchor x="339" y="0" name="bottom"/>
  <anchor x="339" y="357" name="center"/>
  <anchor x="339" y="714" name="top"/>
  <anchor x="657" y="714" name="topright"/>
  <outline>
    <contour>
      <point x="163" y="355" type="line"/>
      <point x="602" y="355" type="line"/>
      <point x="602" y="380" type="line"/>
      <point x="163" y="380" type="line"/>
    </contour>
    <component base="D"/>
  </outline>
</glyph>
<glyph name="uniA7C8" format="2">
  <advance width="570"/>
  <unicode hex="A7C8"/>
  <anchor x="285" y="0" name="bottom"/>
  <anchor x="285" y="268" name="center"/>
  <anchor x="441" y="760" name="top"/>
  <anchor x="510" y="760" name="topright"/>
  <outline>
    <contour>
      <point x="80" y="258" type="line"/>
      <point x="447" y="258" type="line"/>
      <point x="447" y="283" type="line"/>
      <point x="80" y="283" type="line"/>
    </contour>
    <component base="d"/>
  </outline>
</glyph>
<glyph name="uniA7C9" format="2">
  <advance width="490"/>
  <unicode hex="A7C9"/>
  <anchor x="255" y="0" name="bottom"/>
  <anchor x="265" y="714" name="top"/>
  <anchor x="470" y="714" name="topright"/>
  <outline>
    <contour>
      <point x="65" y="355" type="line"/>
      <point x="447" y="355" type="line"/>
      <point x="447" y="380" type="line"/>
      <point x="65" y="380" type="line"/>
    </contour>
    <component base="S"/>
  </outline>
</glyph>
<glyph name="uniA7CA" format="2">
  <advance width="405"/>
  <unicode hex="A7CA"/>
  <anchor x="203" y="0" name="bottom"/>
  <anchor x="203" y="536" name="top"/>
  <anchor x="345" y="536" name="topright"/>
  <outline>
    <contour>
      <point x="55" y="263" type="line"/>
      <point x="363" y="263" type="line"/>
      <point x="363" y="288" type="line"/>
      <point x="55" y="288" type="line"/>
    </contour>
    <component base="s"/>
  </outline>
</glyph>
<glyph name="uniAB30" format="2">
  <advance width="570"/>
  <unicode hex="AB30"/>
  <anchor x="285" y="0" name="bottom"/>
  <anchor x="285" y="536" name="top"/>
  <outline>
    <contour>
      <point x="-5" y="274" type="line"/>
      <point x="566" y="274" type="line"/>
      <point x="566" y="298" type="line"/>
      <point x="-5" y="298" type="line"/>
    </contour>
    <component base="uni0251"/>
  </outline>
</glyph>
<glyph name="uniAB69" format="2">
  <advance width="562"/>
  <unicode hex="AB69"/>
  <anchor x="282.25" y="287.4" name="bottom"/>
  <anchor x="6" y="287.4" name="bottomleft"/>
  <anchor x="282.25" y="609" name="top"/>
  <outline>
    <contour>
      <point x="400" y="609" type="line"/>
      <point x="287" y="302" type="line"/>
      <point x="172" y="609" type="line"/>
      <point x="148" y="609" type="line"/>
      <point x="53" y="329" type="line" smooth="yes"/>
      <point x="45" y="303"/>
      <point x="42" y="299"/>
      <point x="16" y="299" type="curve" smooth="yes"/>
      <point x="1" y="299" type="line"/>
      <point x="1" y="287" type="line"/>
      <point x="116" y="287" type="line"/>
      <point x="116" y="299" type="line"/>
      <point x="92" y="299" type="line" smooth="yes"/>
      <point x="70" y="299"/>
      <point x="67" y="304"/>
      <point x="67" y="311" type="curve" smooth="yes"/>
      <point x="67" y="320"/>
      <point x="72" y="335"/>
      <point x="78" y="352" type="curve" smooth="yes"/>
      <point x="124" y="486" type="line" smooth="yes"/>
      <point x="140" y="535"/>
      <point x="155" y="575"/>
      <point x="159" y="595" type="curve"/>
      <point x="161" y="595" type="line"/>
      <point x="167" y="572"/>
      <point x="194" y="504"/>
      <point x="205" y="475" type="curve" smooth="yes"/>
      <point x="275" y="287" type="line"/>
      <point x="298" y="287" type="line"/>
      <point x="372" y="485" type="line" smooth="yes"/>
      <point x="383" y="515"/>
      <point x="405" y="573"/>
      <point x="409" y="593" type="curve"/>
      <point x="411" y="593" type="line"/>
      <point x="415" y="573"/>
      <point x="432" y="518"/>
      <point x="440" y="489" type="curve" smooth="yes"/>
      <point x="481" y="354" type="line" smooth="yes"/>
      <point x="485" y="342"/>
      <point x="492" y="318"/>
      <point x="492" y="311" type="curve" smooth="yes"/>
      <point x="492" y="304"/>
      <point x="490" y="299"/>
      <point x="468" y="299" type="curve" smooth="yes"/>
      <point x="450" y="299" type="line"/>
      <point x="450" y="287" type="line"/>
      <point x="560" y="287" type="line"/>
      <point x="560" y="299" type="line"/>
      <point x="546" y="299" type="line" smooth="yes"/>
      <point x="519" y="299"/>
      <point x="516" y="303"/>
      <point x="507" y="331" type="curve" smooth="yes"/>
      <point x="421" y="609" type="line"/>
    </contour>
  </outline>
</glyph>
